<?xml version="1.0" encoding="UTF-8"?><svg id="a" xmlns="http://www.w3.org/2000/svg" width="8" height="9" viewBox="0 0 8 9"><path d="M5.08,7.02c-.21.12-.42.25-.64.36-.08.04-.12.09-.12.19,0,.16,0,.31,0,.5,1.23-.69,2.43-1.38,3.66-2.07,0,.25,0,.48,0,.71,0,.05-.04.07-.08.09-.8.45-1.6.9-2.4,1.36-.47.27-.95.53-1.42.8-.07.04-.12.06-.19,0-.03-.02-.06-.04-.1-.05-.13-.05-.15-.13-.15-.26,0-1.27,0-2.54,0-3.81,0-.1-.02-.17-.12-.21-.11-.05-.2-.11-.3-.17-.11-.07-.12-.03-.12.08,0,1.03,0,2.07,0,3.1,0,.29,0,.58,0,.89-.22-.12-.42-.24-.62-.35-.07-.04-.05-.1-.05-.16,0-1.29,0-2.58,0-3.87,0-.11-.03-.17-.13-.22-.14-.07-.27-.15-.42-.23v4.14c-.23-.13-.44-.25-.65-.38-.02-.03-.01-.06-.01-.09,0-1.32,0-2.65,0-3.97,0-.06-.01-.1-.07-.13-.05-.02-.1-.05-.15-.07-.1-.05-.21-.11-.32-.17-.03.06-.02.12-.02.17,0,1.27,0,2.53,0,3.8,0,.15,0,.15-.13.07-.16-.09-.31-.18-.47-.26-.06-.03-.08-.07-.08-.13C0,5.23,0,3.78,0,2.34c0-.07.03-.1.08-.14.17-.13.31-.12.5-.01,1.11.64,2.22,1.26,3.34,1.89.04.02.07.05.13.02.16-.1.33-.19.51-.29-1.22-.69-2.43-1.37-3.66-2.07.22-.12.42-.24.63-.36.05-.03.08,0,.11.02.49.28.99.56,1.48.84.67.38,1.35.76,2.02,1.14.06.03.1.04.16,0,.15-.09.3-.17.47-.27-.34-.19-.67-.38-.99-.56-.73-.41-1.46-.83-2.2-1.24-.02-.01-.04-.03-.05-.04-.04-.04-.09-.07-.15-.08-.02,0-.04,0-.05-.03-.04-.04-.1-.05-.14-.08-.05,0-.08-.03-.02-.06.19-.11.39-.22.58-.33.05-.03.09,0,.13.03,1.16.65,2.32,1.31,3.47,1.97.08.04.13.04.2,0,.14-.09.28-.16.43-.25-.83-.47-1.65-.94-2.46-1.41-.02-.04-.07-.04-.11-.06h0s-.09-.07-.14-.08c-.31-.17-.62-.34-.94-.52.22-.12.42-.24.62-.35.05-.03.09,0,.14.02,1.18.67,2.36,1.33,3.53,2,.06.03.11.07.17.09.19.06.23.19.21.37,0,.1-.03.15-.12.2-1.14.64-2.28,1.28-3.42,1.92-.09.05-.14.11-.13.22.01.11,0,.23,0,.34,0,.1,0,.13.11.07.79-.45,1.58-.9,2.37-1.35.37-.21.74-.42,1.11-.63.02,0,.03-.02.06,0,0,.22,0,.45,0,.69,0,.07-.06.08-.1.1-.4.23-.8.45-1.2.67-.75.42-1.5.85-2.25,1.28-.08.05-.12.1-.11.19,0,.15,0,.31,0,.49,1.22-.69,2.43-1.37,3.66-2.07,0,.18-.01.36,0,.52.02.18-.05.27-.21.36-.52.28-1.03.58-1.54.87-.08.04-.16.08-.24.12-.05.03-.1.04-.14.08-.14.1-.29.17-.44.25-.06.03-.13.05-.18.1h0c-.06.02-.12.04-.16.09Z" fill="#000" stroke-width="0"/></svg>